<svg width="30" height="31" viewBox="0 0 30 31" fill="none" xmlns="http://www.w3.org/2000/svg">
<g clip-path="url(#clip0)">
<path d="M22.9696 26.2928C22.7567 26.5533 22.528 26.8042 22.2847 27.0465C20.2732 29.0488 17.6368 30.0508 15.0004 30.0508C12.364 30.0508 9.72765 29.0488 7.71537 27.0465C5.72829 25.0684 4.69824 22.4432 4.69824 19.7919C4.69824 17.948 5.19718 16.0911 6.21941 14.4323L8.05871 11.4488L15.0004 0.187012L17.7533 4.65364L19.8638 8.07673L23.7806 14.4323C26.0928 18.1842 25.7269 22.9468 22.9696 26.2928Z" fill="#76CDCE" fill-opacity="0.6"/>
<path d="M22.9695 26.2928L8.05859 11.4488L15.0003 0.187012L17.7532 4.65364L19.8637 8.07673L23.7805 14.4323C26.0927 18.1842 25.7268 22.9468 22.9695 26.2928Z" fill="#96E0DE" fill-opacity="0.6"/>
</g>
<defs>
<clipPath id="clip0">
<rect width="30" height="29.8638" fill="white" transform="translate(0 0.187012)"/>
</clipPath>
</defs>
</svg>
