<svg width="390" height="26" viewBox="0 0 390 26" fill="none" xmlns="http://www.w3.org/2000/svg">
<g id="separador">
<g id="Group">
<g id="Vector">
<mask id="path-1-inside-1" fill="white">
<path d="M380.558 14.1157H234.411C233.59 14.1157 233.179 13.7071 233.179 12.8898C233.179 12.0725 233.59 11.6637 234.411 11.6637H380.558C381.379 11.6637 381.79 12.0725 381.79 12.8898C381.79 13.7071 381.379 14.1157 380.558 14.1157Z"/>
</mask>
<path d="M380.558 14.1157H234.411C233.59 14.1157 233.179 13.7071 233.179 12.8898C233.179 12.0725 233.59 11.6637 234.411 11.6637H380.558C381.379 11.6637 381.79 12.0725 381.79 12.8898C381.79 13.7071 381.379 14.1157 380.558 14.1157Z" fill="#3D3D3D" stroke="#3D3D3D" stroke-width="4" mask="url(#path-1-inside-1)"/>
</g>
</g>
<g id="Group_2">
<g id="Vector_2">
<mask id="path-2-inside-2" fill="white">
<path d="M158.053 14.1157H9.85317C9.03212 14.1157 8.62158 13.7071 8.62158 12.8898C8.62158 12.0725 9.03212 11.6637 9.85317 11.6637H158.053C158.874 11.6637 159.285 12.0725 159.285 12.8898C159.285 13.7071 158.464 14.1157 158.053 14.1157Z"/>
</mask>
<path d="M158.053 14.1157H9.85317C9.03212 14.1157 8.62158 13.7071 8.62158 12.8898C8.62158 12.0725 9.03212 11.6637 9.85317 11.6637H158.053C158.874 11.6637 159.285 12.0725 159.285 12.8898C159.285 13.7071 158.464 14.1157 158.053 14.1157Z" fill="#3D3D3D" stroke="#3D3D3D" stroke-width="4" mask="url(#path-2-inside-2)"/>
</g>
</g>
<g id="Group_3">
<g id="Vector_3">
<mask id="path-3-inside-3" fill="white">
<path d="M5.33686 18.2024C2.46317 18.2024 0 15.7504 0 12.8898C0 10.0292 2.46317 7.57712 5.33686 7.57712C8.21055 7.57712 10.6737 10.0292 10.6737 12.8898C10.6737 15.7504 8.21055 18.2024 5.33686 18.2024ZM5.33686 10.0291C3.69475 10.0291 2.46319 11.2552 2.46319 12.8898C2.46319 14.5245 3.69475 15.7504 5.33686 15.7504C6.97897 15.7504 8.21053 14.5245 8.21053 12.8898C8.21053 11.2552 6.97897 10.0291 5.33686 10.0291Z"/>
</mask>
<path d="M5.33686 18.2024C2.46317 18.2024 0 15.7504 0 12.8898C0 10.0292 2.46317 7.57712 5.33686 7.57712C8.21055 7.57712 10.6737 10.0292 10.6737 12.8898C10.6737 15.7504 8.21055 18.2024 5.33686 18.2024ZM5.33686 10.0291C3.69475 10.0291 2.46319 11.2552 2.46319 12.8898C2.46319 14.5245 3.69475 15.7504 5.33686 15.7504C6.97897 15.7504 8.21053 14.5245 8.21053 12.8898C8.21053 11.2552 6.97897 10.0291 5.33686 10.0291Z" fill="#3D3D3D" stroke="#3D3D3D" stroke-width="4" mask="url(#path-3-inside-3)"/>
</g>
</g>
<g id="Group_4">
<g id="Group_5">
<g id="Vector_4">
<mask id="path-4-inside-4" fill="white">
<path d="M223.326 20.2457C219.221 20.2457 215.937 16.9764 215.937 12.8898C215.937 8.80317 219.221 5.5338 223.326 5.5338C227.431 5.5338 230.716 8.80317 230.716 12.8898C231.126 16.9764 227.842 20.2457 223.326 20.2457ZM223.326 7.9858C220.452 7.9858 217.989 10.4377 217.989 13.2984C217.989 16.159 220.452 18.6111 223.326 18.6111C226.2 18.6111 228.663 16.159 228.663 13.2984C228.663 10.0291 226.2 7.9858 223.326 7.9858Z"/>
</mask>
<path d="M223.326 20.2457C219.221 20.2457 215.937 16.9764 215.937 12.8898C215.937 8.80317 219.221 5.5338 223.326 5.5338C227.431 5.5338 230.716 8.80317 230.716 12.8898C231.126 16.9764 227.842 20.2457 223.326 20.2457ZM223.326 7.9858C220.452 7.9858 217.989 10.4377 217.989 13.2984C217.989 16.159 220.452 18.6111 223.326 18.6111C226.2 18.6111 228.663 16.159 228.663 13.2984C228.663 10.0291 226.2 7.9858 223.326 7.9858Z" fill="#3D3D3D" stroke="#3D3D3D" stroke-width="4" mask="url(#path-4-inside-4)"/>
</g>
</g>
<g id="Group_6">
<g id="Vector_5">
<mask id="path-5-inside-5" fill="white">
<path d="M168.316 20.2457C164.211 20.2457 160.927 16.9764 160.927 12.8898C160.927 8.80317 164.211 5.5338 168.316 5.5338C172.421 5.5338 175.706 8.80317 175.706 12.8898C175.706 16.9764 172.421 20.2457 168.316 20.2457ZM168.316 7.9858C165.443 7.9858 162.979 10.4377 162.979 13.2984C162.979 16.159 165.443 18.6111 168.316 18.6111C171.19 18.6111 173.653 16.159 173.653 13.2984C173.243 10.0291 171.19 7.9858 168.316 7.9858Z"/>
</mask>
<path d="M168.316 20.2457C164.211 20.2457 160.927 16.9764 160.927 12.8898C160.927 8.80317 164.211 5.5338 168.316 5.5338C172.421 5.5338 175.706 8.80317 175.706 12.8898C175.706 16.9764 172.421 20.2457 168.316 20.2457ZM168.316 7.9858C165.443 7.9858 162.979 10.4377 162.979 13.2984C162.979 16.159 165.443 18.6111 168.316 18.6111C171.19 18.6111 173.653 16.159 173.653 13.2984C173.243 10.0291 171.19 7.9858 168.316 7.9858Z" fill="#3D3D3D" stroke="#3D3D3D" stroke-width="4" mask="url(#path-5-inside-5)"/>
</g>
</g>
<g id="Group_7">
<g id="Vector_6">
<mask id="path-6-inside-6" fill="white">
<path d="M195.822 25.1496C188.843 25.1496 183.506 19.837 183.506 12.8897C183.506 5.94244 188.843 0.629822 195.822 0.629822C202.801 0.629822 208.137 5.94244 208.137 12.8897C208.137 19.837 202.801 25.1496 195.822 25.1496ZM195.822 3.0817C190.485 3.0817 185.969 7.57709 185.969 12.8897C185.969 18.2023 190.485 22.6976 195.822 22.6976C201.159 22.6976 205.674 18.2023 205.674 12.8897C205.674 7.57709 201.159 3.0817 195.822 3.0817Z"/>
</mask>
<path d="M195.822 25.1496C188.843 25.1496 183.506 19.837 183.506 12.8897C183.506 5.94244 188.843 0.629822 195.822 0.629822C202.801 0.629822 208.137 5.94244 208.137 12.8897C208.137 19.837 202.801 25.1496 195.822 25.1496ZM195.822 3.0817C190.485 3.0817 185.969 7.57709 185.969 12.8897C185.969 18.2023 190.485 22.6976 195.822 22.6976C201.159 22.6976 205.674 18.2023 205.674 12.8897C205.674 7.57709 201.159 3.0817 195.822 3.0817Z" fill="#3D3D3D" stroke="#3D3D3D" stroke-width="4" mask="url(#path-6-inside-6)"/>
</g>
</g>
</g>
<g id="Group_8">
<g id="Vector_7">
<mask id="path-7-inside-7" fill="white">
<path d="M384.663 18.2024C381.789 18.2024 379.326 15.7504 379.326 12.8898C379.326 10.0292 381.789 7.57712 384.663 7.57712C387.537 7.57712 390 10.0292 390 12.8898C390 15.7504 387.537 18.2024 384.663 18.2024ZM384.663 10.0291C383.021 10.0291 381.789 11.2552 381.789 12.8898C381.789 14.5245 383.021 15.7504 384.663 15.7504C386.305 15.7504 387.537 14.5245 387.537 12.8898C387.537 11.2552 386.305 10.0291 384.663 10.0291Z"/>
</mask>
<path d="M384.663 18.2024C381.789 18.2024 379.326 15.7504 379.326 12.8898C379.326 10.0292 381.789 7.57712 384.663 7.57712C387.537 7.57712 390 10.0292 390 12.8898C390 15.7504 387.537 18.2024 384.663 18.2024ZM384.663 10.0291C383.021 10.0291 381.789 11.2552 381.789 12.8898C381.789 14.5245 383.021 15.7504 384.663 15.7504C386.305 15.7504 387.537 14.5245 387.537 12.8898C387.537 11.2552 386.305 10.0291 384.663 10.0291Z" fill="#3D3D3D" stroke="#3D3D3D" stroke-width="4" mask="url(#path-7-inside-7)"/>
</g>
</g>
</g>
</svg>
