<svg  width="1400" height="1056" viewBox="0 0 1400 1056" fill="none" xmlns="http://www.w3.org/2000/svg">
<g style="mix-blend-mode:multiply" opacity="0.65">
<path  d="M926.479 376.965C962.553 432.502 975.27 505.152 970.981 580.254C966.9 655.986 945.394 733.956 894.849 780.968C844.511 828.61 765.764 845.084 687.883 854.638C610.21 864.823 532.985 867.875 463.218 842.629C392.82 817.591 329.25 764.463 289.452 695.482C249.862 627.132 234.045 542.928 243.609 460.504C253.172 378.079 288.747 297.227 349.131 255.71C409.727 213.774 495.552 211.385 570.019 215.876C644.693 220.998 708.217 233.629 769.591 258.841C830.966 284.053 890.192 321.846 926.479 376.965Z" fill="#9BF6FF"/>
<path d="M458.331 557.035C462.071 508.877 529.921 374.856 595.671 335.15C622.727 247.78 693.548 207.915 725.88 258.215C765.67 219.365 841.61 216.319 881.296 207.915C920.16 199.421 962.462 237.404 1013.33 258.215C1063.68 279.383 1123.11 283.024 1166.4 310.414C1209.18 338.159 1235.52 389.206 1229.64 440.833C1223.75 492.46 1277.19 565.312 1259.68 639.536C1242.69 713.404 1153.42 788.909 1110.61 814.669C1068.31 840.073 979.4 796.152 897.212 799.067C815.024 801.983 739.559 851.735 693.548 840.099C647.227 828.018 631.18 754.639 583.277 698.755C535.374 642.871 454.794 604.392 458.331 557.035Z" fill="#9BF6FF" style="mix-blend-mode:multiply"/>
<path d="M365.888 557.035C369.628 508.877 437.479 374.856 503.228 335.15C530.284 247.78 601.105 207.915 633.437 258.215C673.227 219.365 749.167 216.319 788.853 207.915C827.717 199.421 870.019 237.404 920.884 258.215C971.238 279.383 1030.67 283.024 1073.96 310.414C1116.74 338.159 1143.08 389.206 1137.19 440.833C1131.31 492.46 1184.75 565.312 1167.24 639.536C1150.24 713.404 1060.97 788.909 1018.16 814.669C975.867 840.073 886.957 796.152 804.769 799.067C722.581 801.983 647.116 851.735 601.105 840.099C554.784 828.018 538.737 754.639 490.834 698.755C442.931 642.871 362.351 604.392 365.888 557.035Z" fill="#9BF6FF" style="mix-blend-mode:multiply"/>
<path d="M1166.15 458.761C1168.07 507.026 1116.35 648.061 1055.7 695.182C1039.04 785.116 973.366 832.988 935.374 786.813C900.399 830.049 825.336 841.953 786.905 854.939C749.301 867.919 702.848 835.143 649.898 820.421C597.416 805.286 537.969 808.618 491.771 786.478C446.039 763.925 413.914 716.307 413.721 664.346C413.528 612.386 351.941 546.281 360.649 470.519C368.891 395.17 448.722 309.746 488.226 279.158C527.263 248.983 620.699 282.207 701.982 269.702C783.265 257.198 852.395 198.963 899.452 205.14C946.868 211.722 971.383 282.722 1025.49 332.622C1079.6 382.522 1164.13 411.315 1166.15 458.761Z" fill="#9BF6FF" style="mix-blend-mode:multiply"/>
<path d="M1298.1 463.892C1300.01 512.157 1248.3 653.192 1187.64 700.313C1170.99 790.247 1105.31 838.119 1067.32 791.944C1032.35 835.18 957.282 847.084 918.851 860.07C881.247 873.049 834.794 840.274 781.844 825.552C729.361 810.417 669.915 813.748 623.716 791.609C577.985 769.056 545.86 721.438 545.667 669.477C545.474 617.516 483.887 551.411 492.595 475.65C500.837 400.301 580.668 314.877 620.171 284.289C659.208 254.114 752.644 287.338 833.928 274.833C915.211 262.328 984.341 204.094 1031.4 210.27C1078.81 216.853 1103.33 287.852 1157.44 337.752C1211.55 387.652 1296.07 416.446 1298.1 463.892Z" fill="#9BF6FF" style="mix-blend-mode:multiply"/>
<path d="M935.859 444.395C937.776 492.66 886.06 633.695 825.404 680.815C808.748 770.75 743.074 818.622 705.083 772.447C670.108 815.683 595.045 827.587 556.614 840.573C519.009 853.552 472.557 820.777 419.607 806.054C367.124 790.92 307.678 794.251 261.479 772.111C215.748 749.559 183.623 701.941 183.43 649.98C183.237 598.019 121.649 531.914 130.358 456.153C138.6 380.804 218.431 295.38 257.934 264.792C296.971 234.616 390.407 267.841 471.69 255.336C552.974 242.831 622.104 184.597 669.16 190.773C716.576 197.356 741.092 268.355 795.2 318.255C849.309 368.155 933.835 396.949 935.859 444.395Z" fill="#9BF6FF" style="mix-blend-mode:multiply"/>
<path d="M261.292 780.163C223.858 753.509 152.448 638.143 157.33 571.235C100.98 508.343 108.624 437.719 168.394 439.576C159.172 391.706 199.987 335.74 215.72 303.102C230.911 271.008 286.247 259.585 332.361 233.474C378.475 207.907 415.367 167.11 462.566 149.703C509.765 132.84 566.729 139.367 605.79 169.286C644.852 199.204 735.189 197.156 786.186 246.657C837.182 295.615 848.296 397.209 845.041 440.726C841.786 483.7 754.983 525.586 710.496 585.966C666.01 646.347 663.84 725.222 628.034 752.421C591.685 779.619 522.243 754.597 449.003 761.124C375.763 767.652 298.183 806.274 261.292 780.163Z" fill="#9BF6FF" style="mix-blend-mode:multiply"/>
<path d="M313.627 798.634C276.193 771.98 204.783 656.614 209.665 589.706C153.315 526.814 160.959 456.19 220.729 458.047C211.507 410.177 252.322 354.211 268.055 321.573C283.246 289.479 338.582 278.056 384.696 251.945C430.81 226.378 467.702 185.581 514.901 168.174C562.1 151.311 619.064 157.838 658.125 187.757C697.187 217.675 787.524 215.627 838.521 265.128C889.517 314.086 900.631 415.68 897.376 459.197C894.121 502.171 807.318 544.057 762.831 604.437C718.345 664.818 716.175 743.693 680.369 770.892C644.02 798.09 574.578 773.068 501.338 779.595C428.098 786.123 350.518 824.745 313.627 798.634Z" fill="#9BF6FF" style="mix-blend-mode:multiply"/>
</g>
</svg>
