<svg width="1440" height="15" viewBox="0 0 1440 15" fill="none" xmlns="http://www.w3.org/2000/svg">
<mask id="mask0" mask-type="alpha" maskUnits="userSpaceOnUse" x="0" y="0" width="1440" height="15">
<rect width="1440" height="15" fill="white"/>
</mask>
<g mask="url(#mask0)">
<g clip-path="url(#clip0)">
<path d="M1279.67 216.748L1440.53 215.785L1439.83 -196.746L1278.97 -195.783L1279.67 216.748Z" fill="#FFADAD"/>
<path d="M1118.81 217.711L1279.67 216.748L1278.97 -195.783L1118.11 -194.819L1118.81 217.711Z" fill="#FFD6A5"/>
<path d="M957.95 218.675L1118.81 217.712L1118.11 -194.819L957.252 -193.856L957.95 218.675Z" fill="#FDFFB6"/>
<path d="M797.09 219.638L957.95 218.675L957.252 -193.856L796.393 -192.893L797.09 219.638Z" fill="#CAFFBF"/>
<path d="M636.231 220.601L797.09 219.638L796.393 -192.893L635.533 -191.93L636.231 220.601Z" fill="#9BF6FF"/>
<path d="M475.372 221.564L636.231 220.601L635.533 -191.93L474.674 -190.966L475.372 221.564Z" fill="#A0C4FF"/>
<path d="M314.513 222.528L475.372 221.564L474.674 -190.966L313.815 -190.003L314.513 222.528Z" fill="#BDB2FF"/>
<path d="M153.653 223.491L314.512 222.528L313.814 -190.003L152.955 -189.04L153.653 223.491Z" fill="#FFC6FF"/>
<path d="M-7.20646 224.454L153.653 223.491L152.955 -189.04L-7.90428 -188.077L-7.20646 224.454Z" fill="#FFFFFC"/>
</g>
</g>
<defs>
<clipPath id="clip0">
<rect width="1447.76" height="468.786" fill="white" transform="matrix(-0.999982 0.00598809 -0.00169154 -0.999999 1440.53 215.785)"/>
</clipPath>
</defs>
</svg>
