<svg width="70" height="78" viewBox="0 0 70 78" fill="none" xmlns="http://www.w3.org/2000/svg">
<g clip-path="url(#clip0)" filter="url(#filter0_d)">
<path d="M59.4156 18.0616C59.1394 17.7572 58.7474 17.5835 58.3364 17.5833H11.6697C10.8643 17.5797 10.2084 18.2297 10.2049 19.0351C10.2046 19.0831 10.2068 19.1309 10.2113 19.1786L14.5863 65.8453C14.6427 66.444 15.0608 66.9465 15.6392 67.1111L36.0558 72.9445C36.1876 72.982 36.3242 73.0006 36.4612 72.9999C36.6176 72.9998 36.7731 72.9752 36.922 72.927L54.422 67.0936C54.971 66.911 55.3599 66.4213 55.4137 65.8453L59.7887 19.1786C59.8271 18.7705 59.6914 18.365 59.4156 18.0616Z" fill="#57B5FF" fill-opacity="0.9"/>
<path d="M36.4615 61.3335C36.3263 61.3327 36.1917 61.313 36.0618 61.2751L25.8535 58.3585C25.3524 58.2159 24.9655 57.8167 24.8385 57.3114L23.3801 51.478C23.1671 50.7013 23.6241 49.8989 24.4008 49.6859C25.1775 49.4729 25.9799 49.9299 26.1929 50.7066C26.1989 50.7284 26.2043 50.7501 26.2092 50.7721L27.4633 55.7887L36.4612 58.3612L45.3278 55.8266L47.9528 32.1695H21.8778C21.0724 32.1695 20.4194 31.5165 20.4194 30.7111C20.4194 29.9057 21.0724 29.2527 21.8778 29.2527H49.5862C50.3916 29.2478 51.0484 29.8968 51.0533 30.7022C51.0536 30.7588 51.0507 30.8153 51.0444 30.8715L48.1278 57.1215C48.0616 57.7094 47.6468 58.1991 47.0778 58.3611L36.8694 61.2777C36.737 61.3157 36.5994 61.3345 36.4615 61.3335Z" fill="#FAFAFA" fill-opacity="0.9"/>
<path d="M48.1279 43.8335H23.3363C22.5309 43.8335 21.8779 43.1805 21.8779 42.3751C21.8779 41.5697 22.5309 40.9167 23.3363 40.9167H48.1279C48.9333 40.9167 49.5863 41.5697 49.5863 42.3751C49.5863 43.1805 48.9333 43.8335 48.1279 43.8335Z" fill="#FAFAFA" fill-opacity="0.9"/>
<path d="M26.2529 11.7507H20.4196C19.6141 11.7507 18.9612 11.0978 18.9612 10.2924V4.45911C18.9613 3.6537 19.6141 3.00073 20.4196 3.00073H26.2529C27.0583 3.00073 27.7113 3.6537 27.7113 4.45911C27.7113 5.26452 27.0583 5.91749 26.2529 5.91749H21.8779V8.83411H26.2529C27.0583 8.83411 27.7113 9.48708 27.7113 10.2925C27.7113 11.0979 27.0583 11.7507 26.2529 11.7507Z" fill="#37474F" fill-opacity="0.9"/>
<path d="M37.9196 11.7499H32.0862C31.2808 11.7499 30.6278 11.0969 30.6278 10.2915C30.6278 9.48611 31.2808 8.83314 32.0862 8.83314H34.399L31.0537 5.49064C30.4834 4.92189 30.4823 3.99849 31.0511 3.42823C31.3253 3.15329 31.6979 2.99907 32.0862 2.99976H37.9196C38.725 2.99976 39.3779 3.65273 39.3779 4.45814C39.3779 5.26355 38.725 5.91652 37.9196 5.91652H35.6067L38.9492 9.25902C39.5194 9.82777 39.5205 10.7512 38.9518 11.3214C38.6782 11.5957 38.3069 11.7498 37.9196 11.7499Z" fill="#37474F" fill-opacity="0.9"/>
<path d="M49.5863 11.75H43.7529C42.9475 11.75 42.2945 11.097 42.2945 10.2916C42.2945 9.48621 42.9475 8.83324 43.7529 8.83324H46.0658L42.7204 5.49088C42.1502 4.92213 42.1491 3.99873 42.7178 3.42848C42.9921 3.15354 43.3646 2.99932 43.7529 3H49.5863C50.3917 3 51.0447 3.65297 51.0447 4.45838C51.0447 5.26379 50.3917 5.91676 49.5863 5.91676H47.2734L50.6159 9.25926C51.1862 9.82801 51.1873 10.7514 50.6185 11.3217C50.345 11.5958 49.9735 11.7499 49.5863 11.75Z" fill="#37474F" fill-opacity="0.9"/>
</g>
<defs>
<filter id="filter0_d" x="-4" y="0" width="78" height="78" filterUnits="userSpaceOnUse" color-interpolation-filters="sRGB">
<feFlood flood-opacity="0" result="BackgroundImageFix"/>
<feColorMatrix in="SourceAlpha" type="matrix" values="0 0 0 0 0 0 0 0 0 0 0 0 0 0 0 0 0 0 127 0"/>
<feOffset dy="1"/>
<feGaussianBlur stdDeviation="2"/>
<feColorMatrix type="matrix" values="0 0 0 0 0 0 0 0 0 0 0 0 0 0 0 0 0 0 0.25 0"/>
<feBlend mode="normal" in2="BackgroundImageFix" result="effect1_dropShadow"/>
<feBlend mode="normal" in="SourceGraphic" in2="effect1_dropShadow" result="shape"/>
</filter>
<clipPath id="clip0">
<rect width="70" height="70" fill="white" transform="translate(0 3)"/>
</clipPath>
</defs>
</svg>
