<svg width="96" height="96" viewBox="0 0 96 96" fill="none" xmlns="http://www.w3.org/2000/svg">
<path d="M89.5605 25.0803C85.2682 17.7261 79.4461 11.9037 72.0924 7.61184C64.7377 3.31979 56.7085 1.17432 47.9992 1.17432C39.291 1.17432 31.2592 3.32045 23.906 7.61184C16.5517 11.9034 10.7298 17.7261 6.43752 25.0803C2.14591 32.4344 0 40.4651 0 49.1722C0 59.6314 3.05152 69.0367 9.15609 77.3902C15.26 85.7445 23.1453 91.5253 32.8115 94.7333C33.9366 94.9421 34.7696 94.7953 35.3111 94.2964C35.8529 93.7968 36.1235 93.1712 36.1235 92.4221C36.1235 92.2971 36.1128 91.1726 36.092 89.0473C36.0705 86.922 36.0604 85.0678 36.0604 83.4858L34.6229 83.7345C33.7064 83.9024 32.5501 83.9735 31.1542 83.9534C29.7589 83.9339 28.3104 83.7877 26.8107 83.5158C25.3103 83.2463 23.9148 82.6214 22.623 81.6422C21.3319 80.6631 20.4154 79.3814 19.8736 77.7991L19.2486 76.3609C18.8321 75.4035 18.1762 74.3398 17.2803 73.1739C16.3843 72.007 15.4782 71.2158 14.5617 70.7993L14.1241 70.486C13.8325 70.2778 13.562 70.0267 13.3118 69.7354C13.0618 69.444 12.8746 69.1525 12.7496 68.8604C12.6244 68.5682 12.7282 68.3285 13.062 68.1405C13.3958 67.9524 13.9991 67.8611 14.8745 67.8611L16.124 68.0479C16.9574 68.2149 17.9882 68.7138 19.2178 69.5476C20.4467 70.3807 21.4569 71.4639 22.2487 72.7965C23.2075 74.5053 24.3627 75.8073 25.7175 76.7033C27.0712 77.5993 28.436 78.0465 29.8107 78.0465C31.1855 78.0465 32.3728 77.9423 33.3732 77.735C34.3725 77.5266 35.31 77.2134 36.1854 76.797C36.5604 74.0042 37.5814 71.8587 39.2475 70.359C36.8728 70.1095 34.7378 69.7336 32.8415 69.2339C30.9462 68.7335 28.9877 67.9213 26.9672 66.7953C24.9456 65.6708 23.2686 64.2744 21.9357 62.6085C20.6026 60.9418 19.5085 58.7536 18.655 56.046C17.801 53.3373 17.3739 50.2127 17.3739 46.6713C17.3739 41.6288 19.0201 37.3379 22.3118 33.796C20.7698 30.005 20.9154 25.7552 22.7489 21.0471C23.9573 20.6716 25.7492 20.9534 28.1239 21.8905C30.499 22.828 32.2379 23.6312 33.3425 24.2971C34.4471 24.9628 35.3321 25.5269 35.9989 25.9844C39.8746 24.9015 43.8742 24.3599 47.9988 24.3599C52.1234 24.3599 56.1238 24.9015 59.9998 25.9844L62.3746 24.4851C63.9987 23.4848 65.9165 22.568 68.1235 21.7346C70.3318 20.9017 72.0204 20.6723 73.1876 21.0477C75.0619 25.7561 75.2289 30.0057 73.6865 33.7967C76.9779 37.3385 78.6247 41.6306 78.6247 46.6719C78.6247 50.2133 78.1961 53.3478 77.3435 56.0773C76.4898 58.8073 75.3863 60.9933 74.0326 62.6398C72.6773 64.2862 70.9896 65.6717 68.9691 66.796C66.9482 67.9211 64.989 68.7332 63.0937 69.2337C61.1976 69.7341 59.0626 70.1101 56.688 70.3601C58.8538 72.2344 59.9369 75.1929 59.9369 79.2343V92.4204C59.9369 93.1695 60.1974 93.7949 60.7189 94.2946C61.2396 94.7935 62.062 94.9404 63.1872 94.7313C72.8547 91.5237 80.74 85.7427 86.8437 77.3885C92.9467 69.0349 95.9993 59.6297 95.9993 49.1705C95.9971 40.4645 93.8501 32.4344 89.5605 25.0803Z" fill="#FFADAD"/>
</svg>
