<svg width="58" height="79" viewBox="0 0 58 79" fill="none" xmlns="http://www.w3.org/2000/svg">
<g filter="url(#filter0_d)">
<path d="M8.41867 3.00122C7.60661 3.00122 6.94824 3.65959 6.94824 4.47165V10.3532C6.94824 11.1653 7.60661 11.8237 8.41867 11.8237C9.23074 11.8237 9.8891 11.1653 9.8891 10.3532V4.47151C9.8891 3.65945 9.23074 3.00122 8.41867 3.00122Z" fill="#37474F"/>
<path d="M14.2995 8.88153H8.41794C7.60587 8.88153 6.94751 8.22317 6.94751 7.4111C6.94751 6.59904 7.60587 5.94067 8.41794 5.94067H14.2995C15.1116 5.94067 15.77 6.59904 15.77 7.4111C15.77 8.22317 15.1117 8.88153 14.2995 8.88153Z" fill="#37474F"/>
<path d="M14.2995 11.8224C13.4875 11.8224 12.8291 11.1641 12.8291 10.352V4.47043C12.8291 3.65836 13.4875 3 14.2995 3C15.1116 3 15.77 3.65836 15.77 4.47043V10.352C15.77 11.1641 15.1117 11.8224 14.2995 11.8224Z" fill="#37474F"/>
<path d="M26.0625 5.94086H20.1809C19.3688 5.94086 18.7104 5.2825 18.7104 4.47043C18.7104 3.65836 19.3688 3 20.1809 3H26.0625C26.8745 3 27.5329 3.65836 27.5329 4.47043C27.5329 5.2825 26.8745 5.94086 26.0625 5.94086Z" fill="#37474F"/>
<path d="M23.1218 11.8224C22.3097 11.8224 21.6514 11.1641 21.6514 10.352V4.47043C21.6514 3.65836 22.3097 3 23.1218 3C23.9339 3 24.5922 3.65836 24.5922 4.47043V10.352C24.5922 11.1641 23.934 11.8224 23.1218 11.8224Z" fill="#37474F"/>
<path d="M40.7665 11.8225C39.9544 11.8225 39.2961 11.1641 39.2961 10.3521V8.88162L37.5316 11.2343C36.997 11.884 36.0371 11.9773 35.3874 11.4427C35.3113 11.3801 35.2415 11.3104 35.179 11.2343L33.4145 8.88162V10.3521C33.4145 11.1641 32.7561 11.8225 31.9441 11.8225C31.132 11.8225 30.4736 11.1641 30.4736 10.3521V4.47047C30.4736 3.6584 31.132 3.00004 31.9441 3.00004C32.4068 3.00004 32.8427 3.21798 33.1203 3.58824L36.3552 7.89945L39.5901 3.58824C40.0774 2.93856 40.9991 2.80691 41.6486 3.29421C42.0189 3.57184 42.2368 4.00771 42.2368 4.47047V10.3521C42.2369 11.1641 41.5787 11.8225 40.7665 11.8225Z" fill="#37474F"/>
<path d="M51.0591 11.8224H46.6479C45.8359 11.8224 45.1775 11.1641 45.1775 10.352V4.47043C45.1775 3.65836 45.8359 3 46.6479 3C47.46 3 48.1183 3.65836 48.1183 4.47043V8.88158H51.0591C51.8711 8.88158 52.5295 9.53995 52.5295 10.352C52.5295 11.1641 51.8711 11.8224 51.0591 11.8224Z" fill="#37474F"/>
<path d="M53.6173 18.1864C53.3389 17.8795 52.9437 17.7044 52.5293 17.7041H5.47693C4.66487 17.7005 4.00361 18.3559 4.00002 19.1679C3.99975 19.2163 4.00195 19.2646 4.0065 19.3127L8.41765 66.3649C8.47459 66.9685 8.89613 67.4753 9.47922 67.6413L30.0645 73.5228C30.1974 73.5606 30.3351 73.5793 30.4733 73.5787C30.631 73.5785 30.7878 73.5537 30.938 73.5052L48.5826 67.6236C49.136 67.4394 49.5282 66.9457 49.5824 66.3649L53.9935 19.3127C54.0323 18.9011 53.8957 18.4922 53.6173 18.1864Z" fill="#FF8C68"/>
<path d="M30.4733 61.8155C30.337 61.8146 30.2013 61.7948 30.0704 61.7566L19.7778 58.8159C19.2726 58.6721 18.8824 58.2696 18.7544 57.7601L17.284 51.8785C17.0692 51.0954 17.53 50.2864 18.3131 50.0716C19.0962 49.8568 19.9053 50.3177 20.12 51.1008C20.1261 51.1227 20.1315 51.1446 20.1365 51.1668L21.4009 56.2249L30.4409 58.8069L37.9281 56.3102L39.1397 44.1707H17.2398C16.4949 44.1767 15.8633 43.6246 15.7694 42.8856L14.299 31.1225C14.1967 30.317 14.7667 29.581 15.5723 29.4786C15.6376 29.4703 15.7035 29.4663 15.7693 29.4668H43.7066C44.5187 29.4668 45.177 30.1252 45.177 30.9373C45.177 31.7493 44.5187 32.4077 43.7066 32.4077H17.4339L18.5367 41.23H40.766C41.5781 41.2259 42.2396 41.8809 42.2438 42.693C42.244 42.7445 42.2416 42.7961 42.2365 42.8474L40.766 57.5513C40.709 58.1279 40.3187 58.6172 39.7691 58.8011L30.9468 61.7419C30.7938 61.7913 30.634 61.8163 30.4733 61.8155Z" fill="#FAFAFA"/>
</g>
<defs>
<filter id="filter0_d" x="0" y="0" width="58" height="78.5787" filterUnits="userSpaceOnUse" color-interpolation-filters="sRGB">
<feFlood flood-opacity="0" result="BackgroundImageFix"/>
<feColorMatrix in="SourceAlpha" type="matrix" values="0 0 0 0 0 0 0 0 0 0 0 0 0 0 0 0 0 0 127 0"/>
<feOffset dy="1"/>
<feGaussianBlur stdDeviation="2"/>
<feColorMatrix type="matrix" values="0 0 0 0 0 0 0 0 0 0 0 0 0 0 0 0 0 0 0.25 0"/>
<feBlend mode="normal" in2="BackgroundImageFix" result="effect1_dropShadow"/>
<feBlend mode="normal" in="SourceGraphic" in2="effect1_dropShadow" result="shape"/>
</filter>
</defs>
</svg>
