<svg width="96" height="96" viewBox="0 0 96 96" fill="none" xmlns="http://www.w3.org/2000/svg">
<path d="M86.4 0H9.6C4.32 0 0 4.32 0 9.6V86.4C0 91.68 4.32 96 9.6 96H86.4C91.68 96 96 91.68 96 86.4V9.6C96 4.32 91.68 0 86.4 0ZM28.8 81.6H14.4V38.4H28.8V81.6ZM21.6 30.24C16.8 30.24 12.96 26.4 12.96 21.6C12.96 16.8 16.8 12.96 21.6 12.96C26.4 12.96 30.24 16.8 30.24 21.6C30.24 26.4 26.4 30.24 21.6 30.24ZM81.6 81.6H67.2V56.16C67.2 52.3202 63.84 48.96 60 48.96C56.16 48.96 52.8 52.3202 52.8 56.16V81.6H38.4V38.4H52.8V44.16C55.2 40.32 60.48 37.44 64.8 37.44C73.92 37.44 81.6 45.12 81.6 54.24V81.6Z" fill="#A0C4FF"/>
</svg>
