<svg width="96" height="96" viewBox="0 0 96 96" fill="none" xmlns="http://www.w3.org/2000/svg">
<path d="M87.4279 85.7145C89.5859 85.7145 91.4557 85.002 93.0452 83.5951L65.8469 56.3957C65.1944 56.863 64.5618 57.3174 63.9644 57.7495C61.929 59.2491 60.277 60.4193 59.0085 61.2578C57.7402 62.0983 56.0527 62.9549 53.9462 63.8295C51.8382 64.7052 49.8745 65.1416 48.0528 65.1416H47.9994H47.9461C46.1242 65.1416 44.1604 64.7054 42.0527 63.8295C39.945 62.9549 38.2575 62.0983 36.9904 61.2578C35.722 60.4193 34.0709 59.2493 32.0345 57.7495C31.467 57.3335 30.8376 56.877 30.1572 56.3884L2.95361 83.5951C4.543 85.002 6.41404 85.7145 8.57179 85.7145H87.4279Z" fill="#9BF6FF"/>
<path d="M5.41129 39.2682C3.37607 37.9114 1.57126 36.3574 0 34.6069V75.9886L23.9725 52.0161C19.1766 48.6679 12.9974 44.4235 5.41129 39.2682Z" fill="#9BF6FF"/>
<path d="M90.643 39.2682C83.3462 44.207 77.1444 48.4587 72.0371 52.0257L96.0001 75.9896V34.6069C94.4637 36.3222 92.6782 37.8751 90.643 39.2682Z" fill="#9BF6FF"/>
<path d="M87.4278 10.2856H8.57186C5.82081 10.2856 3.70576 11.2146 2.22409 13.0707C0.741201 14.9276 0.000976562 17.2499 0.000976562 20.0349C0.000976562 22.2845 0.983295 24.722 2.94706 27.3481C4.91082 29.9731 7.00043 32.035 9.21483 33.5348C10.4288 34.3925 14.0896 36.9376 20.1974 41.1691C23.4945 43.4539 26.3618 45.4454 28.8258 47.1639C30.926 48.6273 32.7373 49.8945 34.2327 50.9462C34.4044 51.0667 34.6744 51.2598 35.0328 51.516C35.4188 51.7933 35.9074 52.1452 36.5101 52.5804C37.6707 53.4198 38.6349 54.0983 39.4028 54.6167C40.1697 55.1352 41.0989 55.7144 42.1889 56.3575C43.2781 56.9998 44.3053 57.4828 45.2695 57.804C46.2339 58.125 47.1266 58.2861 47.9479 58.2861H48.0012H48.0546C48.8757 58.2861 49.7686 58.125 50.7331 57.804C51.6971 57.4828 52.7235 57.0008 53.8136 56.3575C54.9026 55.7144 55.8305 55.134 56.5998 54.6167C57.3678 54.0983 58.332 53.42 59.4928 52.5804C60.0942 52.1452 60.5828 51.7931 60.9688 51.5169C61.3274 51.2596 61.5972 51.0677 61.7699 50.9462C62.9349 50.1356 64.7503 48.8735 67.1911 47.1787C71.6325 44.0928 78.1734 39.5509 86.8413 33.5348C89.4482 31.714 91.6262 29.5167 93.3766 26.946C95.1239 24.3754 95.9999 21.6789 95.9999 18.8574C95.9999 16.5001 95.1506 14.483 93.4556 12.803C91.7587 11.125 89.7492 10.2856 87.4278 10.2856Z" fill="#9BF6FF"/>
</svg>
