<svg width="891" height="48" viewBox="0 0 891 48" fill="none" xmlns="http://www.w3.org/2000/svg">
<path d="M18.2714 41.2249C18.0584 41.4865 17.8298 41.7386 17.5864 41.982C15.575 43.9934 12.9386 45 10.3022 45C7.66581 45 5.02941 43.9934 3.01712 41.982C1.03005 39.9949 0 37.3577 0 34.6943C0 32.842 0.498943 30.9766 1.52117 29.3103L3.36047 26.3131L10.3022 15L19.0824 29.3103C21.3945 33.0793 21.0287 37.8636 18.2714 41.2249Z" fill="#96E0DE"/>
<path d="M18.2714 41.2249L3.36047 26.3131L10.3022 15L19.0824 29.3103C21.3945 33.0793 21.0287 37.8636 18.2714 41.2249Z" fill="#96E0DE"/>
<path d="M453.271 35.2249C453.058 35.4865 452.83 35.7386 452.586 35.982C450.575 37.9934 447.939 39 445.302 39C442.666 39 440.029 37.9934 438.017 35.982C436.03 33.9949 435 31.3577 435 28.6943C435 26.842 435.499 24.9766 436.521 23.3103L438.36 20.3131L445.302 9L454.082 23.3103C456.395 27.0793 456.029 31.8636 453.271 35.2249Z" fill="#96E0DE"/>
<path d="M453.271 35.2249L438.36 20.3131L445.302 9L454.082 23.3103C456.395 27.0793 456.029 31.8636 453.271 35.2249Z" fill="#96E0DE"/>
<path d="M743.271 26.2249C743.058 26.4865 742.83 26.7386 742.586 26.982C740.575 28.9934 737.939 30 735.302 30C732.666 30 730.029 28.9934 728.017 26.982C726.03 24.9949 725 22.3577 725 19.6943C725 17.842 725.499 15.9766 726.521 14.3103L728.36 11.3131L735.302 0L744.082 14.3103C746.395 18.0793 746.029 22.8636 743.271 26.2249Z" fill="#96E0DE"/>
<path d="M743.271 26.2249L728.36 11.3131L735.302 0L744.082 14.3103C746.395 18.0793 746.029 22.8636 743.271 26.2249Z" fill="#96E0DE"/>
<path d="M598.271 29.2249C598.058 29.4865 597.83 29.7386 597.586 29.982C595.575 31.9934 592.939 33 590.302 33C587.666 33 585.029 31.9934 583.017 29.982C581.03 27.9949 580 25.3577 580 22.6943C580 20.842 580.499 18.9766 581.521 17.3103L583.36 14.3131L590.302 3L599.082 17.3103C601.395 21.0793 601.029 25.8636 598.271 29.2249Z" fill="#96E0DE"/>
<path d="M598.271 29.2249L583.36 14.3131L590.302 3L599.082 17.3103C601.395 21.0793 601.029 25.8636 598.271 29.2249Z" fill="#96E0DE"/>
<path d="M888.271 44.2249C888.058 44.4865 887.83 44.7386 887.586 44.982C885.575 46.9934 882.939 48 880.302 48C877.666 48 875.029 46.9934 873.017 44.982C871.03 42.9949 870 40.3577 870 37.6943C870 35.842 870.499 33.9766 871.521 32.3103L873.36 29.3131L880.302 18L889.082 32.3103C891.395 36.0793 891.029 40.8636 888.271 44.2249Z" fill="#96E0DE"/>
<path d="M888.271 44.2249L873.36 29.3131L880.302 18L889.082 32.3103C891.395 36.0793 891.029 40.8636 888.271 44.2249Z" fill="#96E0DE"/>
<path d="M308.271 32.2249C308.058 32.4865 307.83 32.7386 307.586 32.982C305.575 34.9934 302.939 36 300.302 36C297.666 36 295.029 34.9934 293.017 32.982C291.03 30.9949 290 28.3577 290 25.6943C290 23.842 290.499 21.9766 291.521 20.3103L293.36 17.3131L300.302 6L309.082 20.3103C311.395 24.0793 311.029 28.8636 308.271 32.2249Z" fill="#96E0DE"/>
<path d="M308.271 32.2249L293.36 17.3131L300.302 6L309.082 20.3103C311.395 24.0793 311.029 28.8636 308.271 32.2249Z" fill="#96E0DE"/>
<path d="M163.271 38.2249C163.058 38.4865 162.83 38.7386 162.586 38.982C160.575 40.9934 157.939 42 155.302 42C152.666 42 150.029 40.9934 148.017 38.982C146.03 36.9949 145 34.3577 145 31.6943C145 29.842 145.499 27.9766 146.521 26.3103L148.36 23.3131L155.302 12L164.082 26.3103C166.395 30.0793 166.029 34.8636 163.271 38.2249Z" fill="#96E0DE"/>
<path d="M163.271 38.2249L148.36 23.3131L155.302 12L164.082 26.3103C166.395 30.0793 166.029 34.8636 163.271 38.2249Z" fill="#96E0DE"/>
</svg>
