<svg width="879" height="28" viewBox="0 0 879 28" fill="none" xmlns="http://www.w3.org/2000/svg">
<path d="M9.91391 0.370277C8.23468 3.80192 6.06245 7.11086 3.30465 10.4413C2.87623 10.958 1.74814 12.4822 1.51348 12.8633C1.30465 13.2013 0.960193 13.8191 0.744908 14.2368C0.462884 14.7879 0.249752 15.5285 0.0538421 16.6308C-0.00428495 16.9515 -0.00428495 16.9602 0.00647931 17.761C0.0172436 18.5683 0.0301607 18.7642 0.12058 19.2745C0.544692 21.7223 2.00433 24.0624 4.07968 25.6211C5.18624 26.4542 6.4026 27.0118 7.70077 27.2852C7.84286 27.3154 8.04308 27.3627 8.14211 27.3929C8.23899 27.4209 8.40906 27.4553 8.51455 27.4682C8.62219 27.4811 8.82456 27.507 8.96665 27.5242C9.32402 27.5694 10.676 27.5694 11.0334 27.5242C11.1755 27.507 11.38 27.4811 11.4855 27.4682C11.5931 27.4553 11.7761 27.4166 11.8945 27.3843C12.0129 27.352 12.2304 27.2982 12.3789 27.2659C14.0302 26.9106 15.6362 26.0215 16.9516 24.7363C17.5458 24.155 17.9204 23.705 18.3531 23.057C18.887 22.2562 19.253 21.5048 19.5242 20.6652C19.7051 20.1076 19.8859 19.2529 19.9376 18.7083C19.9483 18.5963 19.9677 18.4263 19.9806 18.3315C19.9957 18.2239 20 17.9096 19.9957 17.5027C19.9871 16.9128 19.9806 16.8138 19.929 16.5253C19.7869 15.7309 19.5759 15.0054 19.3563 14.5597C19.0097 13.8536 18.2734 12.6458 17.944 12.239C17.746 11.9957 17.5092 11.6835 17.3133 11.4036C17.2379 11.3003 16.986 10.9838 16.7514 10.704C14.9537 8.54896 13.5307 6.58126 12.437 4.73196C11.8235 3.69428 11.1992 2.47577 10.7707 1.47469C10.5964 1.0635 10.112 0.0236677 10.0947 0.0215149C10.0883 0.0215149 10.0065 0.178673 9.91391 0.370277Z" fill="#96E0DE"/>
<path d="M288.914 0.370277C287.235 3.80192 285.062 7.11086 282.305 10.4413C281.876 10.958 280.748 12.4822 280.513 12.8633C280.305 13.2013 279.96 13.8191 279.745 14.2368C279.463 14.7879 279.25 15.5285 279.054 16.6308C278.996 16.9515 278.996 16.9602 279.006 17.761C279.017 18.5683 279.03 18.7642 279.121 19.2745C279.545 21.7223 281.004 24.0624 283.08 25.6211C284.186 26.4542 285.403 27.0118 286.701 27.2852C286.843 27.3154 287.043 27.3627 287.142 27.3929C287.239 27.4209 287.409 27.4553 287.515 27.4682C287.622 27.4811 287.825 27.507 287.967 27.5242C288.324 27.5694 289.676 27.5694 290.033 27.5242C290.175 27.507 290.38 27.4811 290.485 27.4682C290.593 27.4553 290.776 27.4166 290.895 27.3843C291.013 27.352 291.23 27.2982 291.379 27.2659C293.03 26.9106 294.636 26.0215 295.952 24.7363C296.546 24.155 296.92 23.705 297.353 23.057C297.887 22.2562 298.253 21.5048 298.524 20.6652C298.705 20.1076 298.886 19.2529 298.938 18.7083C298.948 18.5963 298.968 18.4263 298.981 18.3315C298.996 18.2239 299 17.9096 298.996 17.5027C298.987 16.9128 298.981 16.8138 298.929 16.5253C298.787 15.7309 298.576 15.0054 298.356 14.5597C298.01 13.8536 297.273 12.6458 296.944 12.239C296.746 11.9957 296.509 11.6835 296.313 11.4036C296.238 11.3003 295.986 10.9838 295.751 10.704C293.954 8.54896 292.531 6.58126 291.437 4.73196C290.823 3.69428 290.199 2.47577 289.771 1.47469C289.596 1.0635 289.112 0.0236677 289.095 0.0215149C289.088 0.0215149 289.006 0.178673 288.914 0.370277Z" fill="#96E0DE"/>
<path d="M423.914 0.370277C422.235 3.80192 420.062 7.11086 417.305 10.4413C416.876 10.958 415.748 12.4822 415.513 12.8633C415.305 13.2013 414.96 13.8191 414.745 14.2368C414.463 14.7879 414.25 15.5285 414.054 16.6308C413.996 16.9515 413.996 16.9602 414.006 17.761C414.017 18.5683 414.03 18.7642 414.121 19.2745C414.545 21.7223 416.004 24.0624 418.08 25.6211C419.186 26.4542 420.403 27.0118 421.701 27.2852C421.843 27.3154 422.043 27.3627 422.142 27.3929C422.239 27.4209 422.409 27.4553 422.515 27.4682C422.622 27.4811 422.825 27.507 422.967 27.5242C423.324 27.5694 424.676 27.5694 425.033 27.5242C425.175 27.507 425.38 27.4811 425.485 27.4682C425.593 27.4553 425.776 27.4166 425.895 27.3843C426.013 27.352 426.23 27.2982 426.379 27.2659C428.03 26.9106 429.636 26.0215 430.952 24.7363C431.546 24.155 431.92 23.705 432.353 23.057C432.887 22.2562 433.253 21.5048 433.524 20.6652C433.705 20.1076 433.886 19.2529 433.938 18.7083C433.948 18.5963 433.968 18.4263 433.981 18.3315C433.996 18.2239 434 17.9096 433.996 17.5027C433.987 16.9128 433.981 16.8138 433.929 16.5253C433.787 15.7309 433.576 15.0054 433.356 14.5597C433.01 13.8536 432.273 12.6458 431.944 12.239C431.746 11.9957 431.509 11.6835 431.313 11.4036C431.238 11.3003 430.986 10.9838 430.751 10.704C428.954 8.54896 427.531 6.58126 426.437 4.73196C425.823 3.69428 425.199 2.47577 424.771 1.47469C424.596 1.0635 424.112 0.0236677 424.095 0.0215149C424.088 0.0215149 424.006 0.178673 423.914 0.370277Z" fill="#96E0DE"/>
<path d="M568.914 0.370277C567.235 3.80192 565.062 7.11086 562.305 10.4413C561.876 10.958 560.748 12.4822 560.513 12.8633C560.305 13.2013 559.96 13.8191 559.745 14.2368C559.463 14.7879 559.25 15.5285 559.054 16.6308C558.996 16.9515 558.996 16.9602 559.006 17.761C559.017 18.5683 559.03 18.7642 559.121 19.2745C559.545 21.7223 561.004 24.0624 563.08 25.6211C564.186 26.4542 565.403 27.0118 566.701 27.2852C566.843 27.3154 567.043 27.3627 567.142 27.3929C567.239 27.4209 567.409 27.4553 567.515 27.4682C567.622 27.4811 567.825 27.507 567.967 27.5242C568.324 27.5694 569.676 27.5694 570.033 27.5242C570.175 27.507 570.38 27.4811 570.485 27.4682C570.593 27.4553 570.776 27.4166 570.895 27.3843C571.013 27.352 571.23 27.2982 571.379 27.2659C573.03 26.9106 574.636 26.0215 575.952 24.7363C576.546 24.155 576.92 23.705 577.353 23.057C577.887 22.2562 578.253 21.5048 578.524 20.6652C578.705 20.1076 578.886 19.2529 578.938 18.7083C578.948 18.5963 578.968 18.4263 578.981 18.3315C578.996 18.2239 579 17.9096 578.996 17.5027C578.987 16.9128 578.981 16.8138 578.929 16.5253C578.787 15.7309 578.576 15.0054 578.356 14.5597C578.01 13.8536 577.273 12.6458 576.944 12.239C576.746 11.9957 576.509 11.6835 576.313 11.4036C576.238 11.3003 575.986 10.9838 575.751 10.704C573.954 8.54896 572.531 6.58126 571.437 4.73196C570.823 3.69428 570.199 2.47577 569.771 1.47469C569.596 1.0635 569.112 0.0236677 569.095 0.0215149C569.088 0.0215149 569.006 0.178673 568.914 0.370277Z" fill="#96E0DE"/>
<path d="M733.914 0.370277C732.235 3.80192 730.062 7.11086 727.305 10.4413C726.876 10.958 725.748 12.4822 725.513 12.8633C725.305 13.2013 724.96 13.8191 724.745 14.2368C724.463 14.7879 724.25 15.5285 724.054 16.6308C723.996 16.9515 723.996 16.9602 724.006 17.761C724.017 18.5683 724.03 18.7642 724.121 19.2745C724.545 21.7223 726.004 24.0624 728.08 25.6211C729.186 26.4542 730.403 27.0118 731.701 27.2852C731.843 27.3154 732.043 27.3627 732.142 27.3929C732.239 27.4209 732.409 27.4553 732.515 27.4682C732.622 27.4811 732.825 27.507 732.967 27.5242C733.324 27.5694 734.676 27.5694 735.033 27.5242C735.175 27.507 735.38 27.4811 735.485 27.4682C735.593 27.4553 735.776 27.4166 735.895 27.3843C736.013 27.352 736.23 27.2982 736.379 27.2659C738.03 26.9106 739.636 26.0215 740.952 24.7363C741.546 24.155 741.92 23.705 742.353 23.057C742.887 22.2562 743.253 21.5048 743.524 20.6652C743.705 20.1076 743.886 19.2529 743.938 18.7083C743.948 18.5963 743.968 18.4263 743.981 18.3315C743.996 18.2239 744 17.9096 743.996 17.5027C743.987 16.9128 743.981 16.8138 743.929 16.5253C743.787 15.7309 743.576 15.0054 743.356 14.5597C743.01 13.8536 742.273 12.6458 741.944 12.239C741.746 11.9957 741.509 11.6835 741.313 11.4036C741.238 11.3003 740.986 10.9838 740.751 10.704C738.954 8.54896 737.531 6.58126 736.437 4.73196C735.823 3.69428 735.199 2.47577 734.771 1.47469C734.596 1.0635 734.112 0.0236677 734.095 0.0215149C734.088 0.0215149 734.006 0.178673 733.914 0.370277Z" fill="#96E0DE"/>
<path d="M868.914 0.370277C867.235 3.80192 865.062 7.11086 862.305 10.4413C861.876 10.958 860.748 12.4822 860.513 12.8633C860.305 13.2013 859.96 13.8191 859.745 14.2368C859.463 14.7879 859.25 15.5285 859.054 16.6308C858.996 16.9515 858.996 16.9602 859.006 17.761C859.017 18.5683 859.03 18.7642 859.121 19.2745C859.545 21.7223 861.004 24.0624 863.08 25.6211C864.186 26.4542 865.403 27.0118 866.701 27.2852C866.843 27.3154 867.043 27.3627 867.142 27.3929C867.239 27.4209 867.409 27.4553 867.515 27.4682C867.622 27.4811 867.825 27.507 867.967 27.5242C868.324 27.5694 869.676 27.5694 870.033 27.5242C870.175 27.507 870.38 27.4811 870.485 27.4682C870.593 27.4553 870.776 27.4166 870.895 27.3843C871.013 27.352 871.23 27.2982 871.379 27.2659C873.03 26.9106 874.636 26.0215 875.952 24.7363C876.546 24.155 876.92 23.705 877.353 23.057C877.887 22.2562 878.253 21.5048 878.524 20.6652C878.705 20.1076 878.886 19.2529 878.938 18.7083C878.948 18.5963 878.968 18.4263 878.981 18.3315C878.996 18.2239 879 17.9096 878.996 17.5027C878.987 16.9128 878.981 16.8138 878.929 16.5253C878.787 15.7309 878.576 15.0054 878.356 14.5597C878.01 13.8536 877.273 12.6458 876.944 12.239C876.746 11.9957 876.509 11.6835 876.313 11.4036C876.238 11.3003 875.986 10.9838 875.751 10.704C873.954 8.54896 872.531 6.58126 871.437 4.73196C870.823 3.69428 870.199 2.47577 869.771 1.47469C869.596 1.0635 869.112 0.0236677 869.095 0.0215149C869.088 0.0215149 869.006 0.178673 868.914 0.370277Z" fill="#96E0DE"/>
<path d="M149.914 0.370277C148.235 3.80192 146.062 7.11086 143.305 10.4413C142.876 10.958 141.748 12.4822 141.513 12.8633C141.305 13.2013 140.96 13.8191 140.745 14.2368C140.463 14.7879 140.25 15.5285 140.054 16.6308C139.996 16.9515 139.996 16.9602 140.006 17.761C140.017 18.5683 140.03 18.7642 140.121 19.2745C140.545 21.7223 142.004 24.0624 144.08 25.6211C145.186 26.4542 146.403 27.0118 147.701 27.2852C147.843 27.3154 148.043 27.3627 148.142 27.3929C148.239 27.4209 148.409 27.4553 148.515 27.4682C148.622 27.4811 148.825 27.507 148.967 27.5242C149.324 27.5694 150.676 27.5694 151.033 27.5242C151.175 27.507 151.38 27.4811 151.485 27.4682C151.593 27.4553 151.776 27.4166 151.895 27.3843C152.013 27.352 152.23 27.2982 152.379 27.2659C154.03 26.9106 155.636 26.0215 156.952 24.7363C157.546 24.155 157.92 23.705 158.353 23.057C158.887 22.2562 159.253 21.5048 159.524 20.6652C159.705 20.1076 159.886 19.2529 159.938 18.7083C159.948 18.5963 159.968 18.4263 159.981 18.3315C159.996 18.2239 160 17.9096 159.996 17.5027C159.987 16.9128 159.981 16.8138 159.929 16.5253C159.787 15.7309 159.576 15.0054 159.356 14.5597C159.01 13.8536 158.273 12.6458 157.944 12.239C157.746 11.9957 157.509 11.6835 157.313 11.4036C157.238 11.3003 156.986 10.9838 156.751 10.704C154.954 8.54896 153.531 6.58126 152.437 4.73196C151.823 3.69428 151.199 2.47577 150.771 1.47469C150.596 1.0635 150.112 0.0236677 150.095 0.0215149C150.088 0.0215149 150.006 0.178673 149.914 0.370277Z" fill="#96E0DE"/>
</svg>
