<svg width="220" height="14" viewBox="0 0 220 14" fill="none" xmlns="http://www.w3.org/2000/svg">
<path d="M214.675 7.64144H132.233C131.77 7.64144 131.538 7.40989 131.538 6.94673C131.538 6.48357 131.77 6.25195 132.233 6.25195H214.675C215.138 6.25195 215.37 6.48357 215.37 6.94673C215.37 7.40989 215.138 7.64144 214.675 7.64144Z" fill="#3D3D3D"/>
<path d="M89.158 7.64144H5.55803C5.09487 7.64144 4.86328 7.40989 4.86328 6.94673C4.86328 6.48357 5.09487 6.25195 5.55803 6.25195H89.158C89.6212 6.25195 89.8528 6.48357 89.8528 6.94673C89.8528 7.40989 89.3896 7.64144 89.158 7.64144Z" fill="#3D3D3D"/>
<path d="M3.01053 9.95808C1.38948 9.95808 0 8.56863 0 6.94758C0 5.32653 1.38948 3.93701 3.01053 3.93701C4.63159 3.93701 6.02107 5.32653 6.02107 6.94758C6.02107 8.56863 4.63159 9.95808 3.01053 9.95808ZM3.01053 5.3265C2.08422 5.3265 1.38949 6.02126 1.38949 6.94758C1.38949 7.8739 2.08422 8.56859 3.01053 8.56859C3.93685 8.56859 4.63158 7.8739 4.63158 6.94758C4.63158 6.02126 3.93685 5.3265 3.01053 5.3265Z" fill="#3D3D3D"/>
<path d="M125.98 11.1164C123.664 11.1164 121.812 9.26379 121.812 6.948C121.812 4.63222 123.664 2.77954 125.98 2.77954C128.296 2.77954 130.148 4.63222 130.148 6.948C130.38 9.26379 128.527 11.1164 125.98 11.1164ZM125.98 4.16903C124.359 4.16903 122.969 5.55847 122.969 7.17953C122.969 8.80058 124.359 10.1901 125.98 10.1901C127.601 10.1901 128.99 8.80058 128.99 7.17953C128.99 5.3269 127.601 4.16903 125.98 4.16903Z" fill="#3D3D3D"/>
<path d="M94.9482 11.1164C92.6324 11.1164 90.7798 9.26379 90.7798 6.948C90.7798 4.63222 92.6324 2.77954 94.9482 2.77954C97.264 2.77954 99.1166 4.63222 99.1166 6.948C99.1166 9.26379 97.264 11.1164 94.9482 11.1164ZM94.9482 4.16903C93.3271 4.16903 91.9377 5.55847 91.9377 7.17953C91.9377 8.80058 93.3271 10.1901 94.9482 10.1901C96.5692 10.1901 97.9587 8.80058 97.9587 7.17953C97.7272 5.3269 96.5692 4.16903 94.9482 4.16903Z" fill="#3D3D3D"/>
<path d="M110.462 13.8947C106.525 13.8947 103.515 10.8842 103.515 6.94737C103.515 3.01053 106.525 0 110.462 0C114.399 0 117.409 3.01053 117.409 6.94737C117.409 10.8842 114.399 13.8947 110.462 13.8947ZM110.462 1.38942C107.451 1.38942 104.904 3.93684 104.904 6.94737C104.904 9.95789 107.451 12.5052 110.462 12.5052C113.473 12.5052 116.02 9.95789 116.02 6.94737C116.02 3.93684 113.473 1.38942 110.462 1.38942Z" fill="#3D3D3D"/>
<path d="M216.99 9.95808C215.369 9.95808 213.979 8.56863 213.979 6.94758C213.979 5.32653 215.369 3.93701 216.99 3.93701C218.611 3.93701 220 5.32653 220 6.94758C220 8.56863 218.611 9.95808 216.99 9.95808ZM216.99 5.3265C216.063 5.3265 215.368 6.02126 215.368 6.94758C215.368 7.8739 216.063 8.56859 216.99 8.56859C217.916 8.56859 218.611 7.8739 218.611 6.94758C218.611 6.02126 217.916 5.3265 216.99 5.3265Z" fill="#3D3D3D"/>
</svg>
