<svg width="21" height="30" viewBox="0 0 21 30" fill="none" xmlns="http://www.w3.org/2000/svg">
<path d="M18.2714 26.2249C18.0584 26.4865 17.8298 26.7386 17.5864 26.982C15.575 28.9934 12.9386 30 10.3022 30C7.66581 30 5.02941 28.9934 3.01712 26.982C1.03005 24.9949 0 22.3577 0 19.6943C0 17.842 0.498943 15.9766 1.52117 14.3103L3.36047 11.3131L10.3022 0L19.0824 14.3103C21.3945 18.0793 21.0287 22.8636 18.2714 26.2249Z" fill="#96E0DE"/>
<path d="M18.2714 26.2249L3.36047 11.3131L10.3022 0L19.0824 14.3103C21.3945 18.0793 21.0287 22.8636 18.2714 26.2249Z" fill="#96E0DE"/>
</svg>
